<svg xmlns="http://www.w3.org/2000/svg" viewBox="0 0 400 250">
    <path fill="#f0f0f0" stroke="#ccc" d="M0 0h400v250H0z"/>
    <g fill="#d9d9d9" stroke="#aaa" stroke-width=".5">
        
        <path d="M150,100 L160,90 L170,100 L160,110 Z" />
        <path d="M180,120 L190,110 L200,120 L190,130 Z" />
        <path d="M210,90 L220,80 L230,90 L220,100 Z" />
        <path d="M165,130 L175,120 L185,130 L175,140 Z" />
        <path d="M205,140 L215,130 L225,140 L215,150 Z" />
        <path d="M140,70 L150,60 L160,70 L150,80 Z" />
    </g>
    
    <path d="M175,105 a25,25 0 1,1 50,0 a25,25 0 1,1 -50,0" fill="#f97316" fill-opacity="0.3" stroke="#f97316" stroke-width="1"/>
    <circle cx="200" cy="105" r="3" fill="#c2410c"/>
    
    <text x="235" y="110" font-family="sans-serif" font-size="10" fill="#1e3a5f" font-weight="bold">JABODETABEK</text>
</svg>